HIERARCHY
ROOT root
{
	OFFSET 0.000000 0.000000 0.000000
	CHANNELS 6 Xposition Yposition Zposition Zrotation Yrotation Xrotation
	JOINT lhip
	{
		OFFSET 0.058581 -0.082280 -0.017664
		CHANNELS 3 Zrotation Yrotation Xrotation
		JOINT lknee
		{
			OFFSET 0.043451 -0.386469 0.008037
			CHANNELS 3 Zrotation Yrotation Xrotation
			JOINT lankle
			{
				OFFSET -0.014790 -0.426874 -0.037428
				CHANNELS 3 Zrotation Yrotation Xrotation
				JOINT ltoe
				{
					OFFSET 0.041054 -0.060286 0.122042
					CHANNELS 3 Zrotation Yrotation Xrotation
					End Site
					{
						OFFSET 0.000000 0.000000 0.000000
					}
				}
			}
		}
	}
	JOINT rhip
	{
		OFFSET -0.060310 -0.090513 -0.013543
		CHANNELS 3 Zrotation Yrotation Xrotation
		JOINT rknee
		{
			OFFSET -0.043257 -0.383688 -0.004843
			CHANNELS 3 Zrotation Yrotation Xrotation
			JOINT rankle
			{
				OFFSET 0.019056 -0.420046 -0.034562
				CHANNELS 3 Zrotation Yrotation Xrotation
				JOINT rtoe
				{
					OFFSET -0.034840 -0.062106 0.130323
					CHANNELS 3 Zrotation Yrotation Xrotation
					End Site
					{
						OFFSET 0.000000 0.000000 0.000000
					}
				}
			}
		}
	}
	JOINT lowerback
	{
		OFFSET 0.004439 0.124404 -0.038385
		CHANNELS 3 Zrotation Yrotation Xrotation
		JOINT upperback
		{
			OFFSET 0.004488 0.137956 0.026820
			CHANNELS 3 Zrotation Yrotation Xrotation
			JOINT chest
			{
				OFFSET -0.002265 0.056032 0.002855
				CHANNELS 3 Zrotation Yrotation Xrotation
				JOINT lowerneck
				{
					OFFSET -0.013390 0.211636 -0.033468
					CHANNELS 3 Zrotation Yrotation Xrotation
					JOINT upperneck
					{
						OFFSET 0.010113 0.088937 0.050410
						CHANNELS 3 Zrotation Yrotation Xrotation
						End Site
						{
							OFFSET 0.000000 0.000000 0.000000
						}
					}
				}
				JOINT lclavicle
				{
					OFFSET 0.071702 0.114000 -0.018898
					CHANNELS 3 Zrotation Yrotation Xrotation
					JOINT lshoulder
					{
						OFFSET 0.122921 0.045205 -0.019046
						CHANNELS 3 Zrotation Yrotation Xrotation
						JOINT lelbow
						{
							OFFSET 0.255332 -0.015649 -0.022946
							CHANNELS 3 Zrotation Yrotation Xrotation
							JOINT lwrist
							{
								OFFSET 0.265709 0.012698 -0.007375
								CHANNELS 3 Zrotation Yrotation Xrotation
								End Site
								{
									OFFSET 0.000000 0.000000 0.000000
								}
							}
						}
					}
				}
				JOINT rclavicle
				{
					OFFSET -0.082954 0.112472 -0.023707
					CHANNELS 3 Zrotation Yrotation Xrotation
					JOINT rshoulder
					{
						OFFSET -0.113228 0.046853 -0.008472
						CHANNELS 3 Zrotation Yrotation Xrotation
						JOINT relbow
						{
							OFFSET -0.260127 -0.014369 -0.031269
							CHANNELS 3 Zrotation Yrotation Xrotation
							JOINT rwrist
							{
								OFFSET -0.269108 0.006794 -0.006027
								CHANNELS 3 Zrotation Yrotation Xrotation
								End Site
								{
									OFFSET 0.000000 0.000000 0.000000
								}
							}
						}
					}
				}
			}
		}
	}
}
MOTION
Frames: 13
Frame Time: 0.033333
-0.963708 0.282397 0.999685 86.221120 -0.392444 83.020338 0.902830 -0.186769 -15.147984 -6.336737 0.002689 53.441674 1.948361 8.107476 -3.428253 0.000000 -0.000000 0.000000 6.247333 -0.885238 1.091009 0.064281 6.530063 15.064396 -1.940529 -6.159408 -11.947910 0.000000 -0.000000 0.000000 0.384005 2.459740 15.971889 1.101918 -0.159945 -5.903846 -0.574446 -0.584081 2.502898 1.093563 2.774416 -6.568565 -2.987347 -0.515550 12.868602 -29.560129 6.682373 -2.521974 -51.073287 -5.822432 8.478911 5.090188 -28.465613 9.951551 -3.078678 -0.712372 -2.240820 30.876859 -1.393619 -2.839670 50.680913 6.240305 13.828376 -9.764759 19.299008 -6.550709 5.798221 -0.399373 -6.194705 
-0.924588 0.283160 0.998807 84.902900 -0.816338 83.042267 1.133164 -0.788937 -17.781336 -5.347971 1.725442 46.971919 1.760764 9.428417 -5.478241 0.000000 -0.000000 0.000000 5.142498 -1.696987 4.825650 0.283403 7.881718 13.056682 -1.604757 -5.296737 -13.611647 0.000000 -0.000000 0.000000 0.699782 3.774826 15.639132 0.798785 -0.091373 -5.407002 -0.781972 -0.032059 2.571375 1.062961 2.992320 -6.449467 -3.289347 -0.851744 12.853853 -29.818301 6.923255 -2.693018 -51.681059 -4.370692 8.843039 5.182805 -28.092159 10.377167 -3.294396 -1.155569 -2.340275 30.226782 -1.016081 -2.641630 50.425761 7.567665 13.853976 -9.947241 21.383096 -6.439528 5.486733 0.275967 -6.631564 
-0.885351 0.283425 0.996105 83.382745 -1.055522 83.270267 1.488273 -0.836300 -19.073626 -4.631144 2.347350 37.517395 1.129847 10.953330 -6.128515 0.000000 -0.000000 0.000000 4.120560 -2.452465 7.988367 0.417403 9.456648 11.752999 -1.045479 -4.525325 -15.223173 0.000000 -0.000000 0.000000 1.044760 5.003234 15.519040 0.411394 0.263153 -5.269630 -0.869861 0.514169 2.632423 1.230601 3.467143 -6.919126 -3.617068 -1.595154 12.961730 -30.189198 7.363218 -3.290059 -52.112850 -2.936143 9.150989 4.849577 -27.564214 10.606575 -2.423592 -0.945469 -1.935641 30.038638 -0.813543 -2.681745 49.709463 8.885582 13.765308 -10.006274 24.041982 -6.443670 3.528086 1.666881 -5.834106 
-0.837025 0.284213 0.989849 82.720173 -0.871737 83.788027 1.496926 -1.092641 -19.774711 -2.897470 0.787193 23.515417 -0.152734 9.677201 -3.974873 0.000000 -0.000000 0.000000 3.454552 -3.110483 11.336503 0.588079 10.765235 10.661104 -0.837604 -4.657561 -16.962270 0.000000 -0.000000 0.000000 1.834434 5.561499 14.964860 0.011085 0.437473 -4.742701 -1.050403 0.885873 2.370243 1.538307 3.970356 -6.854726 -3.997834 -2.072529 12.873269 -30.588994 7.700057 -3.412232 -52.575370 -1.894877 9.340774 4.732156 -26.132176 10.269958 -2.228274 -0.714860 -1.724728 29.499043 -0.155023 -2.759422 49.241495 10.142763 14.086881 -10.234427 26.020534 -6.678638 2.943158 2.289485 -5.526680 
-0.806668 0.284133 0.984890 81.752058 -0.709485 84.397269 1.543407 -0.742501 -19.496585 -1.824260 -1.059747 14.078970 -0.688885 9.167959 -2.861074 0.000000 -0.000000 0.000000 3.099110 -3.383063 12.503275 0.613173 11.051137 11.171306 -0.102955 -3.806116 -18.231579 0.000000 -0.000000 0.000000 1.997771 5.857407 14.213110 -0.156544 0.930358 -4.424946 -1.057946 1.400577 2.208359 1.866738 4.459857 -6.900216 -4.243025 -2.629925 12.988771 -30.740874 8.440712 -3.949578 -52.749679 -1.221103 9.656842 4.403397 -25.485511 10.248148 -2.294001 -1.226260 -1.125068 29.458257 -0.127228 -2.913267 48.984283 10.899712 14.115777 -10.333757 26.922148 -6.704731 2.990983 3.200553 -5.165818 
-0.764888 0.285875 0.978892 81.036719 -0.427074 84.335775 1.488232 -0.325461 -18.535930 -0.937216 -2.719439 3.937029 -0.771246 8.009363 -4.969788 0.000000 -0.000000 0.000000 2.254175 -4.359611 15.264283 0.845920 11.720223 11.651539 0.178298 -3.806678 -19.446519 0.000000 -0.000000 0.000000 2.753664 6.165330 14.076515 -0.499644 1.274684 -3.821670 -1.131996 1.710928 1.950211 2.212369 4.827296 -7.288355 -4.590337 -3.097950 13.093594 -30.873993 8.533216 -4.111488 -53.246324 -0.119312 9.640721 4.486965 -24.371669 10.168675 -1.795369 -0.865919 -1.126689 29.369898 0.268654 -2.879318 48.510595 11.640412 13.711382 -10.549284 27.930364 -7.008358 2.639909 2.916578 -4.756524 
-0.719973 0.286787 0.971894 79.572279 -0.881308 84.506897 1.568572 -0.682751 -17.302452 -1.573916 -1.551810 -1.932340 -0.189810 8.031980 -6.345961 0.000000 -0.000000 0.000000 0.646089 -4.054319 17.295655 1.174359 13.276029 12.993969 0.922077 -3.346288 -19.636963 0.000000 -0.000000 0.000000 2.393518 7.122177 13.390687 -0.530714 1.502315 -3.181433 -1.231282 2.168204 1.780240 2.412320 5.018581 -6.955275 -4.553325 -2.970769 12.363693 -30.968816 8.896041 -3.991238 -53.486363 0.556156 9.376556 4.604114 -23.496401 10.193372 -1.843616 -0.371387 -1.264040 29.188298 0.522599 -2.783397 48.653222 12.361830 13.765153 -10.923744 28.184887 -7.207543 2.462398 2.824415 -4.337266 
-0.674732 0.289225 0.966529 79.242697 -1.318988 84.563153 0.954949 -2.188063 -18.290417 -2.045160 -0.950525 2.447755 0.556477 8.735330 -4.578934 0.000000 -0.000000 0.000000 -0.146852 -3.240055 18.053788 1.192239 13.421177 17.088697 2.522368 -3.190640 -18.587423 0.000000 -0.000000 0.000000 2.080473 7.442923 13.030033 -0.460416 1.483188 -3.011750 -1.483248 2.312201 1.803520 2.673918 4.621349 -6.887389 -4.771472 -2.881327 12.460301 -31.105401 9.259633 -3.970350 -53.500530 1.167319 9.549520 4.869707 -22.943542 10.082315 -2.299207 -0.215496 -1.291977 29.436080 0.727650 -2.786183 48.588841 12.698728 14.135283 -11.434166 28.057361 -7.779647 2.591596 2.829340 -4.248298 
-0.626357 0.291597 0.963293 79.879803 -1.739890 84.857345 -0.448905 -3.065004 -19.942048 -2.110249 -0.380788 9.114320 2.002123 8.764435 -0.728411 0.000000 -0.000000 0.000000 -0.608358 -2.875636 17.335423 1.341918 12.831257 22.916432 4.257599 -2.457810 -15.164537 0.000000 -0.000000 0.000000 1.627510 7.471031 12.387886 -0.218350 1.214336 -3.209804 -1.725318 2.047688 1.905396 2.688254 3.991499 -7.021630 -4.761023 -2.313314 12.711990 -31.331599 9.882064 -3.646824 -53.182391 1.548836 9.494514 4.956973 -22.860661 10.054064 -2.988045 -0.238728 -1.079190 30.067130 0.223043 -3.157053 48.487758 12.757202 14.529576 -11.568338 27.661573 -8.200174 3.144386 2.641933 -3.581799 
-0.562969 0.294262 0.966277 81.301828 -2.931721 84.413960 -2.162986 -5.715406 -19.165553 -3.358401 -1.149441 14.405685 4.825534 9.209721 1.016231 0.000000 -0.000000 0.000000 -2.196838 -2.757179 15.446803 1.969913 10.925859 32.445659 7.319487 -1.595694 -3.252831 0.000000 -0.000000 0.000000 0.219898 7.911429 11.713491 0.050213 0.799497 -3.095325 -1.700540 1.545073 1.842687 2.401142 2.097873 -5.466897 -4.202601 -1.348624 12.102664 -31.219601 10.119577 -3.393393 -53.118859 1.388531 9.581697 5.459618 -22.140829 10.015016 -4.834830 -0.114321 -0.599985 30.789041 -0.961234 -3.513332 49.118707 11.681464 14.989620 -12.356061 26.468810 -9.799717 4.113230 2.722811 -3.567184 
-0.513280 0.297124 0.970806 82.131358 -3.207882 83.657965 -3.581212 -5.871531 -17.339987 -4.141030 -1.651826 18.155904 8.276812 9.698205 -1.315459 0.000000 -0.000000 0.000000 -3.127791 -2.887454 12.095369 3.146436 9.749413 40.979281 10.192025 -0.867872 12.089273 0.000000 -0.000000 0.000000 0.217034 7.366029 11.335073 0.147622 1.168743 -2.976083 -1.885870 1.346369 2.046452 1.886587 0.571640 -4.060646 -3.778534 0.087190 11.680737 -30.965848 10.019247 -2.785137 -53.356757 0.748549 9.098777 5.834079 -21.875876 10.066532 -6.084311 0.594668 -0.412707 30.578944 -1.641189 -2.975182 50.026840 11.064426 14.854111 -12.467257 25.018091 -10.818749 4.811983 2.563545 -3.368460 
-0.468751 0.299522 0.974330 82.359978 -3.308575 83.342745 -4.993962 -5.690013 -15.589815 -4.244163 -2.205039 20.929452 11.070177 11.043557 -4.290916 0.000000 -0.000000 0.000000 -3.171986 -2.115960 6.215760 4.460677 8.982987 50.489735 9.643849 -3.639688 22.668851 0.000000 -0.000000 0.000000 0.050062 5.883799 11.488085 0.324604 2.119499 -3.227098 -2.077527 1.353726 2.252308 1.917317 0.035099 -4.747036 -4.186321 1.217866 12.754949 -31.323884 9.935457 -2.570749 -52.631282 -0.315379 8.706405 5.661687 -22.603871 9.548645 -7.135281 0.368554 -0.618445 31.158431 -1.667417 -2.684889 49.903264 10.963372 15.497580 -12.080593 23.308438 -12.376444 5.676157 2.266148 -2.729491 
-0.425203 0.299475 0.978097 83.278842 -3.269405 82.985699 -6.405877 -5.819344 -11.995676 -3.956707 -4.080415 20.214957 12.453213 12.750227 -5.929332 0.000000 -0.000000 0.000000 -2.779072 -0.886559 0.747432 4.843345 6.134312 58.569147 5.453663 -8.171368 16.304626 0.000000 -0.000000 0.000000 -0.393315 4.407139 11.529580 0.720495 2.579702 -3.431473 -2.067662 0.854803 2.937725 2.516360 1.130425 -5.224525 -4.941179 1.421150 13.126141 -31.391857 9.714229 -2.476430 -52.306049 -1.394823 8.747964 6.116671 -24.184853 9.039305 -7.205325 0.222486 -2.047729 32.006173 -1.314033 -2.884948 49.617043 10.625022 16.116862 -11.788717 21.550992 -12.109172 6.152521 2.251544 -2.391332 
